#!OML:ASF H:\ManfredETheater\Project 1\Capture day 1\Session 1\subject.ASF
:FULLY-SPECIFIED
:DEGREES
348
root 1.3429 15.8899 -31.406 -150.706 2.11214 -183.795
lowerback 18.4414 -2.75528 -0.401186
upperback -0.925499 -3.26429 3.07686
thorax -11.196 -1.34673 4.5186
lowerneck -17.896 1.34158 -0.808506
upperneck -2.2889 2.68361 -1.7867
head 2.3637 1.56022 -0.229047
rclavicle -2.06736e-014 -5.1684e-015
rhumerus -53.3396 -5.75063 -84.5113
rradius 74.3936
rwrist -16.0133
rhand -28.4267 4.52967
rfingers 7.12502
rthumb -1.79804 -25.4425
lclavicle -2.06736e-014 -5.1684e-015
lhumerus -35.7382 -12.8661 97.3442
lradius 93.3672
lwrist 12.8718
lhand -21.0092 -10.0426
lfingers 7.12502
lthumb 5.36548 19.8695
rfemur -56.2986 -4.85808 22.9207
rtibia 75.7339
rfoot -25.8138 -18.1042
rtoes -47.1751
lfemur -19.7348 -4.21925 -24.4779
ltibia 65.3308
lfoot 23.0154 -9.4869
ltoes 7.98545
349
root 1.35587 15.9077 -31.7472 -150.532 2.09427 -183.219
lowerback 18.7398 -2.66848 0.117209
upperback -0.883233 -2.98883 3.24699
thorax -11.3585 -1.22863 4.35401
lowerneck -17.8596 1.31154 -0.85789
upperneck -2.54688 2.68635 -2.08419
head 2.27221 1.56587 -0.318913
rclavicle 3.69739e-014 -6.12257e-014
rhumerus -50.3024 -4.71413 -85.4677
rradius 74.7807
rwrist -16.458
rhand -28.3251 4.5272
rfingers 7.12502
rthumb -1.69992 -25.4458
lclavicle 3.69739e-014 -6.12257e-014
lhumerus -36.6304 -11.0686 97.2673
lradius 88.0899
lwrist 13.4165
lhand -21.8836 -10.6365
lfingers 7.12502
lthumb 4.52115 19.2953
rfemur -54.378 -4.29004 23.2253
rtibia 74.7101
rfoot -26.2262 -18.4916
rtoes -47.6287
lfemur -22.7991 -3.23305 -23.6567
ltibia 69.6922
lfoot 20.346 -9.67383
ltoes 6.4059
350
root 1.36807 15.9212 -32.0924 -150.346 2.09955 -182.74
lowerback 18.9432 -2.57466 0.551172
upperback -0.87329 -2.72896 3.38594
thorax -11.4966 -1.11705 4.20092
lowerneck -17.8752 1.28836 -0.894185
upperneck -2.66529 2.68981 -2.40833
head 2.23938 1.56506 -0.418214
rclavicle 2.78299e-015 -3.02153e-014
rhumerus -47.4006 -3.36321 -86.4016
rradius 75.6795
rwrist -16.7353
rhand -28.1409 4.59032
rfingers 7.12502
rthumb -1.52202 -25.384
lclavicle 2.78299e-015 -3.02153e-014
lhumerus -37.6945 -9.33422 97.0157
lradius 83.342
lwrist 13.8434
lhand -22.6057 -11.271
lfingers 7.12502
lthumb 3.82386 18.6744
rfemur -52.465 -3.83577 23.463
rtibia 73.6356
rfoot -26.6405 -18.799
rtoes -48.0273
lfemur -25.9841 -2.24223 -22.9793
ltibia 73.9787
lfoot 17.6925 -9.52912
ltoes 4.90464
351
root 1.37943 15.9301 -32.4423 -150.158 2.15385 -182.356
lowerback 19.0625 -2.46598 0.8957
upperback -0.89288 -2.48031 3.47816
thorax -11.6148 -1.01045 4.04512
lowerneck -17.9418 1.27425 -0.904302
upperneck -2.65658 2.69519 -2.73681
head 2.26047 1.559 -0.522339
rclavicle -1.19271e-014 -1.90833e-014
rhumerus -44.6895 -1.77947 -87.2747
rradius 77.1268
rwrist -16.7468
rhand -27.8546 4.7735
rfingers 7.12502
rthumb -1.24548 -25.2026
lclavicle -1.19271e-014 -1.90833e-014
lhumerus -39.1101 -7.82165 96.626
lradius 79.4804
lwrist 13.9466
lhand -23.1025 -11.9
lfingers 7.12502
lthumb 3.34415 18.0535
rfemur -50.5422 -3.48194 23.6185
rtibia 72.502
rfoot -27.0508 -19.0404
rtoes -48.3942
lfemur -29.2606 -1.23279 -22.4701
ltibia 78.1373
lfoot 15.0488 -9.07468
ltoes 3.62688
352
root 1.3901 15.9356 -32.7976 -149.981 2.26428 -182.034
lowerback 19.1247 -2.34064 1.18102
upperback -0.929714 -2.23515 3.51416
thorax -11.7174 -0.907028 3.85814
lowerneck -18.0636 1.26773 -0.882424
upperneck -2.5546 2.70101 -3.02845
head 2.32388 1.54961 -0.619477
rclavicle 1.55052e-014 3.18055e-015
rhumerus -42.1981 -0.0540316 -88.073
rradius 79.1354
rwrist -16.491
rhand -27.4531 5.07031
rfingers 7.12502
rthumb -0.85767 -24.9077
lclavicle 1.55052e-014 3.18055e-015
lhumerus -41.0031 -6.69502 96.1449
lradius 76.7913
lwrist 13.6204
lhand -23.3605 -12.4691
lfingers 7.12502
lthumb 3.095 17.4882
rfemur -48.5756 -3.1962 23.7105
rtibia 71.2881
rfoot -27.457 -19.2076
rtoes -48.7282
lfemur -32.5966 -0.186009 -22.1064
ltibia 82.1195
lfoot 12.3984 -8.41205
ltoes 2.46086
353
root 1.40047 15.9385 -33.1595 -149.808 2.41404 -181.748
lowerback 19.1249 -2.20523 1.43764
upperback -0.982274 -1.99691 3.49026
thorax -11.8007 -0.810502 3.61956
lowerneck -18.2288 1.26904 -0.81197
upperneck -2.39176 2.70448 -3.26692
head 2.41639 1.53722 -0.707868
rclavicle 4.37326e-015 -3.61788e-014
rhumerus -39.9565 1.73797 -88.7941
rradius 81.698
rwrist -16.0487
rhand -26.931 5.47921
rfingers 7.12502
rthumb -0.353468 -24.5002
lclavicle 4.37326e-015 -3.61788e-014
lhumerus -43.4407 -6.09357 95.6384
lradius 75.4267
lwrist 12.995
lhand -23.3836 -12.9146
lfingers 7.12502
lthumb 3.07264 17.043
rfemur -46.5511 -2.96624 23.7602
rtibia 69.9678
rfoot -27.847 -19.2985
rtoes -49.0412
lfemur -35.9912 0.889607 -21.8602
ltibia 85.8815
lfoot 9.76646 -7.63786
ltoes 1.39201
354
root 1.41153 15.9399 -33.5284 -149.641 2.59959 -181.476
lowerback 19.0748 -2.05206 1.67832
upperback -1.04628 -1.75218 3.40581
thorax -11.867 -0.715101 3.31847
lowerneck -18.4251 1.26567 -0.712587
upperneck -2.19441 2.69147 -3.41435
head 2.52545 1.51756 -0.772964
rclavicle -3.26007e-014 2.5842e-014
rhumerus -37.9847 3.52628 -89.4322
rradius 84.7924
rwrist -15.5489
rhand -26.291 5.92142
rfingers 7.12502
rthumb 0.264716 -24.0582
lclavicle -3.26007e-014 2.5842e-014
lhumerus -46.4079 -6.0862 95.1948
lradius 75.3938
lwrist 12.3372
lhand -23.2364 -13.2667
lfingers 7.12502
lthumb 3.21481 16.6889
rfemur -44.4521 -2.75592 23.785
rtibia 68.5115
rfoot -28.2005 -19.3038
rtoes -49.3376
lfemur -39.4376 2.00062 -21.703
ltibia 89.3802
lfoot 7.19155 -6.83514
ltoes 0.290928
355
root 1.42409 15.9411 -33.9056 -149.479 2.78504 -181.205
lowerback 18.9807 -1.8817 1.92846
upperback -1.12699 -1.49387 3.26997
thorax -11.926 -0.618238 2.94972
lowerneck -18.6278 1.25038 -0.581164
upperneck -1.97691 2.65113 -3.49114
head 2.64192 1.48536 -0.823058
rclavicle -2.8625e-014 7.03698e-014
rhumerus -36.3058 5.2589 -89.9646
rradius 88.3726
rwrist -15.1256
rhand -25.5684 6.37701
rfingers 7.12502
rthumb 0.962632 -23.6006
lclavicle -2.8625e-014 7.03698e-014
lhumerus -49.8304 -6.62758 94.8899
lradius 76.5543
lwrist 11.9228
lhand -22.9015 -13.5418
lfingers 7.12502
lthumb 3.53825 16.4086
rfemur -42.2548 -2.56618 23.8087
rtibia 66.8876
rfoot -28.4974 -19.2187
rtoes -49.6337
lfemur -42.9277 3.117 -21.6024
ltibia 92.5747
lfoot 4.72545 -6.08079
ltoes -0.821286
356
root 1.43928 15.9438 -34.2928 -149.316 2.95301 -180.939
lowerback 18.8246 -1.68451 2.18025
upperback -1.22278 -1.21047 3.0908
thorax -11.964 -0.513641 2.52326
lowerneck -18.8187 1.20404 -0.449214
upperneck -1.75043 2.56399 -3.49552
head 2.75763 1.43209 -0.853658
rclavicle -1.11319e-014 3.02153e-014
rhumerus -34.9096 6.89282 -90.3619
rradius 92.374
rwrist -14.8604
rhand -24.7897 6.77572
rfingers 7.12502
rthumb 1.71467 -23.1971
lclavicle -1.11319e-014 3.02153e-014
lhumerus -53.5776 -7.60985 94.7717
lradius 78.6743
lwrist 12.0328
lhand -22.382 -13.7158
lfingers 7.12502
lthumb 4.03994 16.2256
rfemur -39.9473 -2.38025 23.8289
rtibia 65.0666
rfoot -28.6957 -19.0347
rtoes -49.9215
lfemur -46.4462 4.21365 -21.5538
ltibia 95.4143
lfoot 2.40056 -5.43382
ltoes -1.83025
357
root 1.45775 15.9494 -34.6916 -149.158 3.06867 -180.696
lowerback 18.5985 -1.45547 2.4287
upperback -1.33633 -0.893887 2.88466
thorax -11.9777 -0.395982 2.05869
lowerneck -18.9704 1.11024 -0.334711
upperneck -1.5104 2.41267 -3.46863
head 2.86932 1.34754 -0.876852
rclavicle -1.82882e-014 9.97899e-014
rhumerus -33.7874 8.40476 -90.5705
rradius 96.7024
rwrist -14.7998
rhand -24.0269 7.12899
rfingers 7.12502
rthumb 2.45135 -22.8367
lclavicle -1.82882e-014 9.97899e-014
lhumerus -57.5161 -8.88378 94.8599
lradius 81.462
lwrist 12.8121
lhand -21.6732 -13.7223
lfingers 7.12502
lthumb 4.72436 16.205
rfemur -37.5057 -2.21207 23.8437
rtibia 63.0232
rfoot -28.7558 -18.7472
rtoes -50.2247
lfemur -49.9584 5.23551 -21.5553
ltibia 97.8537
lfoot 0.238929 -4.93337
ltoes -2.68301
358
root 1.47984 15.959 -35.1034 -149.018 3.11561 -180.494
lowerback 18.2984 -1.18984 2.64877
upperback -1.45798 -0.541082 2.66666
thorax -11.9516 -0.260788 1.58711
lowerneck -19.0864 0.964423 -0.244266
upperneck -1.24473 2.19492 -3.44812
head 2.98244 1.22879 -0.904322
rclavicle 5.96354e-015 -5.56597e-015
rhumerus -32.8912 9.78628 -90.538
rradius 101.245
rwrist -14.9025
rhand -23.3119 7.44419
rfingers 7.12502
rthumb 3.14186 -22.5124
lclavicle 5.96354e-015 -5.56597e-015
lhumerus -61.5063 -10.2993 95.1312
lradius 84.6288
lwrist 14.2797
lhand -20.8344 -13.6171
lfingers 7.12502
lthumb 5.53425 16.2907
rfemur -34.914 -2.06089 23.8398
rtibia 60.7447
rfoot -28.6373 -18.3184
rtoes -50.5245
lfemur -53.4258 6.14821 -21.6206
ltibia 99.8544
lfoot -1.75554 -4.61957
ltoes -3.53871
